<svg xmlns="http://www.w3.org/2000/svg" width="164" height="80" viewBox="0 0 164 80">
  <g id="Group_3" data-name="Group 3" transform="translate(-1169 -580)">
    <g id="Rectangle_1" data-name="Rectangle 1" transform="translate(1169 580)" fill="#ffffff" stroke="#000000" stroke-width="1">
      <rect width="164" height="80" rx="5" stroke="none"/>
      <rect x="1" y="1" width="162" height="78" rx="4" fill="none"/>
    </g>
    <g id="Group_1" data-name="Group 1" transform="translate(946 540.832)">
      <path id="Path_1" data-name="Path 1" d="M754.3-501.923c-.272.17-.484.628-.96,2.063l-.187.569-.543-.051c-.942-.085-.764-.459-3.3,6.878-1.206,3.49-2.182,6.36-2.166,6.377.076.051,4.781,1.656,4.806,1.639.008-.017.671-1.894,1.452-4.178,1.622-4.679,1.418-4.348,1.97-3.176a5.063,5.063,0,0,1,.475,2.344c-.043.373-.586,2.064-1.843,5.689-1.783,5.138-1.792,5.163-1.682,5.5a1.04,1.04,0,0,0,1.758.357c.144-.178,3.575-10.105,3.719-10.759a5.981,5.981,0,0,0-.238-3.142,10.94,10.94,0,0,0-1.444-2.717,2.639,2.639,0,0,1-.408-.62,11.341,11.341,0,0,1,.34-1.121c.374-1.1.382-1.384.085-1.766a1.51,1.51,0,0,0-.594-.357c-.238-.076-.424-.187-.424-.238s.178-.612.4-1.24c.442-1.274.442-1.435.043-1.885A1,1,0,0,0,754.3-501.923Z" transform="translate(-431.455 552.073)" fill="#2ca01c"/>
      <path id="Path_2" data-name="Path 2" d="M41.93-98.084c-.662,1.766-5.638,16.372-5.766,16.924a22.346,22.346,0,0,0-.5,5.333l-.043,2.607h-.569c-.306,0-1.07-.059-1.69-.136q-4.611-.535-4.6-2.5A2.945,2.945,0,0,1,29.4-77.16c1.019-1.41-.594-1.69-3.55-.612-.433.161-1.24.5-1.8.756a5.585,5.585,0,0,1-2.437.739c-.586,0-.807-.094-.926-.4-.221-.577,1.028-2.047,3.134-3.711.577-.459,1.2-.977,1.376-1.155.977-.977.679-1.495-.849-1.478-1.41.025-3.515.552-7.7,1.953-2.93.977-3.83,1.223-4.509,1.223-.7,0-1.028-.238-1.028-.764a1.987,1.987,0,0,1,.79-1.418,4.748,4.748,0,0,1,3.236-1.205c.671.008,1.223-.127,1.35-.34.161-.255-1.6-.3-2.5-.059A8.159,8.159,0,0,0,10.3-81.3c-.73,1.062-.051,2,1.46,1.987A9.53,9.53,0,0,0,13.3-79.5a54.108,54.108,0,0,0,5.775-1.851,17.975,17.975,0,0,1,4.543-1c.909-.051,1.053.008.9.373-.136.331-.493.654-2.038,1.851C20.242-78.409,19.5-77.525,19.5-76.6c0,.764.561,1.028,1.792.841a29.606,29.606,0,0,0,4.237-1.359,7.891,7.891,0,0,1,2.768-.637c.306.076.255.323-.221,1.138-.493.832-.543,1.231-.246,1.843.645,1.342,2.981,2.064,6.658,2.064h1.2l.424-.45a29.559,29.559,0,0,0,4.7-6.369c.28-.569,1.325-3.456,3.023-8.381,1.427-4.135,2.692-7.779,2.811-8.1a5.344,5.344,0,0,0,.187-.6c-.034-.025-4.747-1.656-4.789-1.656C42.015-98.271,41.973-98.186,41.93-98.084Z" transform="translate(272.996 166.178)" fill="#2ca01c"/>
    </g>
    <text id="Chữ_ký" data-name="Chữ ký" transform="translate(1230 649)" fill="#2ca01c" font-size="14" font-family="SegoeUI, Segoe UI"><tspan x="0" y="0">Chữ ký</tspan></text>
    <path id="Path_4" data-name="Path 4" d="M1330.508,657.508v-9.146l-9.146,9.146Z" transform="translate(-1.508 -1.508)" fill="#2ca01c"/>
  </g>
</svg>
